<svg class="rich-terminal" viewBox="0 0 1238 782.0" xmlns="http://www.w3.org/2000/svg">
    <!-- Generated with Rich https://www.textualize.io -->
    <style>

    
    

    .terminal-recorder-matrix {
        font-family: Fira Code, monospace;
        font-size: 20px;
        line-height: 24.4px;
        font-variant-east-asian: full-width;
    }

    .terminal-recorder-title {
        font-size: 18px;
        font-weight: bold;
        font-family: arial;
    }

    .terminal-recorder-r1 { fill: #c5c8c6 }
.terminal-recorder-r2 { fill: #dcd7e8 }
.terminal-recorder-r3 { fill: #9e98b0 }
.terminal-recorder-r4 { fill: #141020 }
.terminal-recorder-r5 { fill: #d4af37;font-weight: bold }
.terminal-recorder-r6 { fill: #dcd7e8;font-weight: bold }
.terminal-recorder-r7 { fill: #a19fa5 }
.terminal-recorder-r8 { fill: #16122a }
.terminal-recorder-r9 { fill: #7c778c }
.terminal-recorder-r10 { fill: #9d7bd8 }
.terminal-recorder-r11 { fill: #777484 }
.terminal-recorder-r12 { fill: #000010 }
.terminal-recorder-r13 { fill: #726f7e }
.terminal-recorder-r14 { fill: #d3af37 }
.terminal-recorder-r15 { fill: #d3af37;font-weight: bold }
.terminal-recorder-r16 { fill: #4c4465 }
    </style>

    <defs>
    <clipPath id="terminal-recorder-clip-terminal">
      <rect x="0" y="0" width="1219.0" height="731.0" />
    </clipPath>
    <clipPath id="terminal-recorder-line-0">
    <rect x="0" y="1.5" width="1220" height="24.65"/>
            </clipPath>
<clipPath id="terminal-recorder-line-1">
    <rect x="0" y="25.9" width="1220" height="24.65"/>
            </clipPath>
<clipPath id="terminal-recorder-line-2">
    <rect x="0" y="50.3" width="1220" height="24.65"/>
            </clipPath>
<clipPath id="terminal-recorder-line-3">
    <rect x="0" y="74.7" width="1220" height="24.65"/>
            </clipPath>
<clipPath id="terminal-recorder-line-4">
    <rect x="0" y="99.1" width="1220" height="24.65"/>
            </clipPath>
<clipPath id="terminal-recorder-line-5">
    <rect x="0" y="123.5" width="1220" height="24.65"/>
            </clipPath>
<clipPath id="terminal-recorder-line-6">
    <rect x="0" y="147.9" width="1220" height="24.65"/>
            </clipPath>
<clipPath id="terminal-recorder-line-7">
    <rect x="0" y="172.3" width="1220" height="24.65"/>
            </clipPath>
<clipPath id="terminal-recorder-line-8">
    <rect x="0" y="196.7" width="1220" height="24.65"/>
            </clipPath>
<clipPath id="terminal-recorder-line-9">
    <rect x="0" y="221.1" width="1220" height="24.65"/>
            </clipPath>
<clipPath id="terminal-recorder-line-10">
    <rect x="0" y="245.5" width="1220" height="24.65"/>
            </clipPath>
<clipPath id="terminal-recorder-line-11">
    <rect x="0" y="269.9" width="1220" height="24.65"/>
            </clipPath>
<clipPath id="terminal-recorder-line-12">
    <rect x="0" y="294.3" width="1220" height="24.65"/>
            </clipPath>
<clipPath id="terminal-recorder-line-13">
    <rect x="0" y="318.7" width="1220" height="24.65"/>
            </clipPath>
<clipPath id="terminal-recorder-line-14">
    <rect x="0" y="343.1" width="1220" height="24.65"/>
            </clipPath>
<clipPath id="terminal-recorder-line-15">
    <rect x="0" y="367.5" width="1220" height="24.65"/>
            </clipPath>
<clipPath id="terminal-recorder-line-16">
    <rect x="0" y="391.9" width="1220" height="24.65"/>
            </clipPath>
<clipPath id="terminal-recorder-line-17">
    <rect x="0" y="416.3" width="1220" height="24.65"/>
            </clipPath>
<clipPath id="terminal-recorder-line-18">
    <rect x="0" y="440.7" width="1220" height="24.65"/>
            </clipPath>
<clipPath id="terminal-recorder-line-19">
    <rect x="0" y="465.1" width="1220" height="24.65"/>
            </clipPath>
<clipPath id="terminal-recorder-line-20">
    <rect x="0" y="489.5" width="1220" height="24.65"/>
            </clipPath>
<clipPath id="terminal-recorder-line-21">
    <rect x="0" y="513.9" width="1220" height="24.65"/>
            </clipPath>
<clipPath id="terminal-recorder-line-22">
    <rect x="0" y="538.3" width="1220" height="24.65"/>
            </clipPath>
<clipPath id="terminal-recorder-line-23">
    <rect x="0" y="562.7" width="1220" height="24.65"/>
            </clipPath>
<clipPath id="terminal-recorder-line-24">
    <rect x="0" y="587.1" width="1220" height="24.65"/>
            </clipPath>
<clipPath id="terminal-recorder-line-25">
    <rect x="0" y="611.5" width="1220" height="24.65"/>
            </clipPath>
<clipPath id="terminal-recorder-line-26">
    <rect x="0" y="635.9" width="1220" height="24.65"/>
            </clipPath>
<clipPath id="terminal-recorder-line-27">
    <rect x="0" y="660.3" width="1220" height="24.65"/>
            </clipPath>
<clipPath id="terminal-recorder-line-28">
    <rect x="0" y="684.7" width="1220" height="24.65"/>
            </clipPath>
    </defs>

    <rect fill="#292929" stroke="rgba(255,255,255,0.35)" stroke-width="1" x="1" y="1" width="1236" height="780" rx="8"/><text class="terminal-recorder-title" fill="#c5c8c6" text-anchor="middle" x="618" y="27">Aetherius</text>
            <g transform="translate(26,22)">
            <circle cx="0" cy="0" r="7" fill="#ff5f57"/>
            <circle cx="22" cy="0" r="7" fill="#febc2e"/>
            <circle cx="44" cy="0" r="7" fill="#28c840"/>
            </g>
        
    <g transform="translate(9, 41)" clip-path="url(#terminal-recorder-clip-terminal)">
    <rect fill="#282045" x="0" y="1.5" width="12.2" height="24.65" shape-rendering="crispEdges"/><rect fill="#282045" x="12.2" y="1.5" width="12.2" height="24.65" shape-rendering="crispEdges"/><rect fill="#282045" x="24.4" y="1.5" width="61" height="24.65" shape-rendering="crispEdges"/><rect fill="#282045" x="85.4" y="1.5" width="12.2" height="24.65" shape-rendering="crispEdges"/><rect fill="#282045" x="97.6" y="1.5" width="378.2" height="24.65" shape-rendering="crispEdges"/><rect fill="#282045" x="475.8" y="1.5" width="109.8" height="24.65" shape-rendering="crispEdges"/><rect fill="#282045" x="585.6" y="1.5" width="36.6" height="24.65" shape-rendering="crispEdges"/><rect fill="#282045" x="622.2" y="1.5" width="85.4" height="24.65" shape-rendering="crispEdges"/><rect fill="#282045" x="707.6" y="1.5" width="390.4" height="24.65" shape-rendering="crispEdges"/><rect fill="#282045" x="1098" y="1.5" width="12.2" height="24.65" shape-rendering="crispEdges"/><rect fill="#282045" x="1110.2" y="1.5" width="0" height="24.65" shape-rendering="crispEdges"/><rect fill="#282045" x="1110.2" y="1.5" width="97.6" height="24.65" shape-rendering="crispEdges"/><rect fill="#282045" x="1207.8" y="1.5" width="12.2" height="24.65" shape-rendering="crispEdges"/><rect fill="#141020" x="0" y="25.9" width="24.4" height="24.65" shape-rendering="crispEdges"/><rect fill="#141020" x="24.4" y="25.9" width="1146.8" height="24.65" shape-rendering="crispEdges"/><rect fill="#3e3160" x="1171.2" y="25.9" width="24.4" height="24.65" shape-rendering="crispEdges"/><rect fill="#141020" x="1195.6" y="25.9" width="24.4" height="24.65" shape-rendering="crispEdges"/><rect fill="#141020" x="0" y="50.3" width="24.4" height="24.65" shape-rendering="crispEdges"/><rect fill="#141020" x="24.4" y="50.3" width="24.4" height="24.65" shape-rendering="crispEdges"/><rect fill="#141020" x="48.8" y="50.3" width="24.4" height="24.65" shape-rendering="crispEdges"/><rect fill="#141020" x="73.2" y="50.3" width="97.6" height="24.65" shape-rendering="crispEdges"/><rect fill="#141020" x="170.8" y="50.3" width="24.4" height="24.65" shape-rendering="crispEdges"/><rect fill="#141020" x="195.2" y="50.3" width="951.6" height="24.65" shape-rendering="crispEdges"/><rect fill="#141020" x="1146.8" y="50.3" width="24.4" height="24.65" shape-rendering="crispEdges"/><rect fill="#3e3160" x="1171.2" y="50.3" width="24.4" height="24.65" shape-rendering="crispEdges"/><rect fill="#141020" x="1195.6" y="50.3" width="24.4" height="24.65" shape-rendering="crispEdges"/><rect fill="#141020" x="0" y="74.7" width="24.4" height="24.65" shape-rendering="crispEdges"/><rect fill="#141020" x="24.4" y="74.7" width="24.4" height="24.65" shape-rendering="crispEdges"/><rect fill="#141020" x="48.8" y="74.7" width="1085.8" height="24.65" shape-rendering="crispEdges"/><rect fill="#141020" x="1134.6" y="74.7" width="12.2" height="24.65" shape-rendering="crispEdges"/><rect fill="#141020" x="1146.8" y="74.7" width="24.4" height="24.65" shape-rendering="crispEdges"/><rect fill="#3e3160" x="1171.2" y="74.7" width="24.4" height="24.65" shape-rendering="crispEdges"/><rect fill="#141020" x="1195.6" y="74.7" width="24.4" height="24.65" shape-rendering="crispEdges"/><rect fill="#141020" x="0" y="99.1" width="24.4" height="24.65" shape-rendering="crispEdges"/><rect fill="#141020" x="24.4" y="99.1" width="24.4" height="24.65" shape-rendering="crispEdges"/><rect fill="#141020" x="48.8" y="99.1" width="1024.8" height="24.65" shape-rendering="crispEdges"/><rect fill="#141020" x="1073.6" y="99.1" width="73.2" height="24.65" shape-rendering="crispEdges"/><rect fill="#141020" x="1146.8" y="99.1" width="24.4" height="24.65" shape-rendering="crispEdges"/><rect fill="#3e3160" x="1171.2" y="99.1" width="24.4" height="24.65" shape-rendering="crispEdges"/><rect fill="#141020" x="1195.6" y="99.1" width="24.4" height="24.65" shape-rendering="crispEdges"/><rect fill="#141020" x="0" y="123.5" width="24.4" height="24.65" shape-rendering="crispEdges"/><rect fill="#141020" x="24.4" y="123.5" width="24.4" height="24.65" shape-rendering="crispEdges"/><rect fill="#141020" x="48.8" y="123.5" width="646.6" height="24.65" shape-rendering="crispEdges"/><rect fill="#141020" x="695.4" y="123.5" width="451.4" height="24.65" shape-rendering="crispEdges"/><rect fill="#141020" x="1146.8" y="123.5" width="24.4" height="24.65" shape-rendering="crispEdges"/><rect fill="#3e3160" x="1171.2" y="123.5" width="24.4" height="24.65" shape-rendering="crispEdges"/><rect fill="#141020" x="1195.6" y="123.5" width="24.4" height="24.65" shape-rendering="crispEdges"/><rect fill="#141020" x="0" y="147.9" width="24.4" height="24.65" shape-rendering="crispEdges"/><rect fill="#141020" x="24.4" y="147.9" width="1146.8" height="24.65" shape-rendering="crispEdges"/><rect fill="#3e3160" x="1171.2" y="147.9" width="24.4" height="24.65" shape-rendering="crispEdges"/><rect fill="#141020" x="1195.6" y="147.9" width="24.4" height="24.65" shape-rendering="crispEdges"/><rect fill="#141020" x="0" y="172.3" width="24.4" height="24.65" shape-rendering="crispEdges"/><rect fill="#141020" x="24.4" y="172.3" width="1146.8" height="24.65" shape-rendering="crispEdges"/><rect fill="#3e3160" x="1171.2" y="172.3" width="24.4" height="24.65" shape-rendering="crispEdges"/><rect fill="#141020" x="1195.6" y="172.3" width="24.4" height="24.65" shape-rendering="crispEdges"/><rect fill="#141020" x="0" y="196.7" width="24.4" height="24.65" shape-rendering="crispEdges"/><rect fill="#141020" x="24.4" y="196.7" width="12.2" height="24.65" shape-rendering="crispEdges"/><rect fill="#141020" x="36.6" y="196.7" width="36.6" height="24.65" shape-rendering="crispEdges"/><rect fill="#141020" x="73.2" y="196.7" width="1085.8" height="24.65" shape-rendering="crispEdges"/><rect fill="#141020" x="1159" y="196.7" width="12.2" height="24.65" shape-rendering="crispEdges"/><rect fill="#3e3160" x="1171.2" y="196.7" width="24.4" height="24.65" shape-rendering="crispEdges"/><rect fill="#141020" x="1195.6" y="196.7" width="24.4" height="24.65" shape-rendering="crispEdges"/><rect fill="#141020" x="0" y="221.1" width="24.4" height="24.65" shape-rendering="crispEdges"/><rect fill="#141020" x="24.4" y="221.1" width="12.2" height="24.65" shape-rendering="crispEdges"/><rect fill="#16122a" x="36.6" y="221.1" width="12.2" height="24.65" shape-rendering="crispEdges"/><rect fill="#1c1730" x="48.8" y="221.1" width="1098" height="24.65" shape-rendering="crispEdges"/><rect fill="#141020" x="1146.8" y="221.1" width="12.2" height="24.65" shape-rendering="crispEdges"/><rect fill="#141020" x="1159" y="221.1" width="12.2" height="24.65" shape-rendering="crispEdges"/><rect fill="#3e3160" x="1171.2" y="221.1" width="24.4" height="24.65" shape-rendering="crispEdges"/><rect fill="#141020" x="1195.6" y="221.1" width="24.4" height="24.65" shape-rendering="crispEdges"/><rect fill="#141020" x="0" y="245.5" width="24.4" height="24.65" shape-rendering="crispEdges"/><rect fill="#141020" x="24.4" y="245.5" width="12.2" height="24.65" shape-rendering="crispEdges"/><rect fill="#16122a" x="36.6" y="245.5" width="12.2" height="24.65" shape-rendering="crispEdges"/><rect fill="#1c1730" x="48.8" y="245.5" width="24.4" height="24.65" shape-rendering="crispEdges"/><rect fill="#1c1730" x="73.2" y="245.5" width="305" height="24.65" shape-rendering="crispEdges"/><rect fill="#1c1730" x="378.2" y="245.5" width="719.8" height="24.65" shape-rendering="crispEdges"/><rect fill="#1c1730" x="1098" y="245.5" width="12.2" height="24.65" shape-rendering="crispEdges"/><rect fill="#1c1730" x="1110.2" y="245.5" width="12.2" height="24.65" shape-rendering="crispEdges"/><rect fill="#1c1730" x="1122.4" y="245.5" width="24.4" height="24.65" shape-rendering="crispEdges"/><rect fill="#141020" x="1146.8" y="245.5" width="12.2" height="24.65" shape-rendering="crispEdges"/><rect fill="#141020" x="1159" y="245.5" width="12.2" height="24.65" shape-rendering="crispEdges"/><rect fill="#3e3160" x="1171.2" y="245.5" width="24.4" height="24.65" shape-rendering="crispEdges"/><rect fill="#141020" x="1195.6" y="245.5" width="24.4" height="24.65" shape-rendering="crispEdges"/><rect fill="#141020" x="0" y="269.9" width="24.4" height="24.65" shape-rendering="crispEdges"/><rect fill="#141020" x="24.4" y="269.9" width="12.2" height="24.65" shape-rendering="crispEdges"/><rect fill="#16122a" x="36.6" y="269.9" width="12.2" height="24.65" shape-rendering="crispEdges"/><rect fill="#1c1730" x="48.8" y="269.9" width="1098" height="24.65" shape-rendering="crispEdges"/><rect fill="#141020" x="1146.8" y="269.9" width="12.2" height="24.65" shape-rendering="crispEdges"/><rect fill="#141020" x="1159" y="269.9" width="12.2" height="24.65" shape-rendering="crispEdges"/><rect fill="#3e3160" x="1171.2" y="269.9" width="24.4" height="24.65" shape-rendering="crispEdges"/><rect fill="#141020" x="1195.6" y="269.9" width="24.4" height="24.65" shape-rendering="crispEdges"/><rect fill="#141020" x="0" y="294.3" width="24.4" height="24.65" shape-rendering="crispEdges"/><rect fill="#141020" x="24.4" y="294.3" width="1146.8" height="24.65" shape-rendering="crispEdges"/><rect fill="#3e3160" x="1171.2" y="294.3" width="24.4" height="24.65" shape-rendering="crispEdges"/><rect fill="#141020" x="1195.6" y="294.3" width="24.4" height="24.65" shape-rendering="crispEdges"/><rect fill="#141020" x="0" y="318.7" width="24.4" height="24.65" shape-rendering="crispEdges"/><rect fill="#141020" x="24.4" y="318.7" width="12.2" height="24.65" shape-rendering="crispEdges"/><rect fill="#141020" x="36.6" y="318.7" width="414.8" height="24.65" shape-rendering="crispEdges"/><rect fill="#141020" x="451.4" y="318.7" width="707.6" height="24.65" shape-rendering="crispEdges"/><rect fill="#141020" x="1159" y="318.7" width="12.2" height="24.65" shape-rendering="crispEdges"/><rect fill="#3e3160" x="1171.2" y="318.7" width="24.4" height="24.65" shape-rendering="crispEdges"/><rect fill="#141020" x="1195.6" y="318.7" width="24.4" height="24.65" shape-rendering="crispEdges"/><rect fill="#141020" x="0" y="343.1" width="24.4" height="24.65" shape-rendering="crispEdges"/><rect fill="#141020" x="24.4" y="343.1" width="12.2" height="24.65" shape-rendering="crispEdges"/><rect fill="#9d7bd8" x="36.6" y="343.1" width="12.2" height="24.65" shape-rendering="crispEdges"/><rect fill="#252039" x="48.8" y="343.1" width="1098" height="24.65" shape-rendering="crispEdges"/><rect fill="#141020" x="1146.8" y="343.1" width="12.2" height="24.65" shape-rendering="crispEdges"/><rect fill="#141020" x="1159" y="343.1" width="12.2" height="24.65" shape-rendering="crispEdges"/><rect fill="#3e3160" x="1171.2" y="343.1" width="24.4" height="24.65" shape-rendering="crispEdges"/><rect fill="#141020" x="1195.6" y="343.1" width="24.4" height="24.65" shape-rendering="crispEdges"/><rect fill="#141020" x="0" y="367.5" width="24.4" height="24.65" shape-rendering="crispEdges"/><rect fill="#141020" x="24.4" y="367.5" width="12.2" height="24.65" shape-rendering="crispEdges"/><rect fill="#9d7bd8" x="36.6" y="367.5" width="12.2" height="24.65" shape-rendering="crispEdges"/><rect fill="#252039" x="48.8" y="367.5" width="24.4" height="24.65" shape-rendering="crispEdges"/><rect fill="#dcd7e8" x="73.2" y="367.5" width="12.2" height="24.65" shape-rendering="crispEdges"/><rect fill="#252039" x="85.4" y="367.5" width="122" height="24.65" shape-rendering="crispEdges"/><rect fill="#252039" x="207.4" y="367.5" width="915" height="24.65" shape-rendering="crispEdges"/><rect fill="#252039" x="1122.4" y="367.5" width="24.4" height="24.65" shape-rendering="crispEdges"/><rect fill="#141020" x="1146.8" y="367.5" width="12.2" height="24.65" shape-rendering="crispEdges"/><rect fill="#141020" x="1159" y="367.5" width="12.2" height="24.65" shape-rendering="crispEdges"/><rect fill="#3e3160" x="1171.2" y="367.5" width="24.4" height="24.65" shape-rendering="crispEdges"/><rect fill="#141020" x="1195.6" y="367.5" width="24.4" height="24.65" shape-rendering="crispEdges"/><rect fill="#141020" x="0" y="391.9" width="24.4" height="24.65" shape-rendering="crispEdges"/><rect fill="#141020" x="24.4" y="391.9" width="12.2" height="24.65" shape-rendering="crispEdges"/><rect fill="#9d7bd8" x="36.6" y="391.9" width="12.2" height="24.65" shape-rendering="crispEdges"/><rect fill="#252039" x="48.8" y="391.9" width="1098" height="24.65" shape-rendering="crispEdges"/><rect fill="#141020" x="1146.8" y="391.9" width="12.2" height="24.65" shape-rendering="crispEdges"/><rect fill="#141020" x="1159" y="391.9" width="12.2" height="24.65" shape-rendering="crispEdges"/><rect fill="#3e3160" x="1171.2" y="391.9" width="24.4" height="24.65" shape-rendering="crispEdges"/><rect fill="#141020" x="1195.6" y="391.9" width="24.4" height="24.65" shape-rendering="crispEdges"/><rect fill="#141020" x="0" y="416.3" width="24.4" height="24.65" shape-rendering="crispEdges"/><rect fill="#141020" x="24.4" y="416.3" width="1146.8" height="24.65" shape-rendering="crispEdges"/><rect fill="#3e3160" x="1171.2" y="416.3" width="24.4" height="24.65" shape-rendering="crispEdges"/><rect fill="#141020" x="1195.6" y="416.3" width="24.4" height="24.65" shape-rendering="crispEdges"/><rect fill="#141020" x="0" y="440.7" width="24.4" height="24.65" shape-rendering="crispEdges"/><rect fill="#141020" x="24.4" y="440.7" width="12.2" height="24.65" shape-rendering="crispEdges"/><rect fill="#141020" x="36.6" y="440.7" width="109.8" height="24.65" shape-rendering="crispEdges"/><rect fill="#141020" x="146.4" y="440.7" width="1012.6" height="24.65" shape-rendering="crispEdges"/><rect fill="#141020" x="1159" y="440.7" width="12.2" height="24.65" shape-rendering="crispEdges"/><rect fill="#3e3160" x="1171.2" y="440.7" width="24.4" height="24.65" shape-rendering="crispEdges"/><rect fill="#141020" x="1195.6" y="440.7" width="24.4" height="24.65" shape-rendering="crispEdges"/><rect fill="#141020" x="0" y="465.1" width="24.4" height="24.65" shape-rendering="crispEdges"/><rect fill="#141020" x="24.4" y="465.1" width="12.2" height="24.65" shape-rendering="crispEdges"/><rect fill="#16122a" x="36.6" y="465.1" width="12.2" height="24.65" shape-rendering="crispEdges"/><rect fill="#1c1730" x="48.8" y="465.1" width="1098" height="24.65" shape-rendering="crispEdges"/><rect fill="#141020" x="1146.8" y="465.1" width="12.2" height="24.65" shape-rendering="crispEdges"/><rect fill="#141020" x="1159" y="465.1" width="12.2" height="24.65" shape-rendering="crispEdges"/><rect fill="#3e3160" x="1171.2" y="465.1" width="24.4" height="24.65" shape-rendering="crispEdges"/><rect fill="#141020" x="1195.6" y="465.1" width="24.4" height="24.65" shape-rendering="crispEdges"/><rect fill="#141020" x="0" y="489.5" width="24.4" height="24.65" shape-rendering="crispEdges"/><rect fill="#141020" x="24.4" y="489.5" width="12.2" height="24.65" shape-rendering="crispEdges"/><rect fill="#16122a" x="36.6" y="489.5" width="12.2" height="24.65" shape-rendering="crispEdges"/><rect fill="#1c1730" x="48.8" y="489.5" width="24.4" height="24.65" shape-rendering="crispEdges"/><rect fill="#1c1730" x="73.2" y="489.5" width="109.8" height="24.65" shape-rendering="crispEdges"/><rect fill="#1c1730" x="183" y="489.5" width="939.4" height="24.65" shape-rendering="crispEdges"/><rect fill="#1c1730" x="1122.4" y="489.5" width="24.4" height="24.65" shape-rendering="crispEdges"/><rect fill="#141020" x="1146.8" y="489.5" width="12.2" height="24.65" shape-rendering="crispEdges"/><rect fill="#141020" x="1159" y="489.5" width="12.2" height="24.65" shape-rendering="crispEdges"/><rect fill="#000010" x="1171.2" y="489.5" width="24.4" height="24.65" shape-rendering="crispEdges"/><rect fill="#141020" x="1195.6" y="489.5" width="24.4" height="24.65" shape-rendering="crispEdges"/><rect fill="#141020" x="0" y="513.9" width="24.4" height="24.65" shape-rendering="crispEdges"/><rect fill="#141020" x="24.4" y="513.9" width="12.2" height="24.65" shape-rendering="crispEdges"/><rect fill="#16122a" x="36.6" y="513.9" width="12.2" height="24.65" shape-rendering="crispEdges"/><rect fill="#1c1730" x="48.8" y="513.9" width="1098" height="24.65" shape-rendering="crispEdges"/><rect fill="#141020" x="1146.8" y="513.9" width="12.2" height="24.65" shape-rendering="crispEdges"/><rect fill="#141020" x="1159" y="513.9" width="12.2" height="24.65" shape-rendering="crispEdges"/><rect fill="#000010" x="1171.2" y="513.9" width="24.4" height="24.65" shape-rendering="crispEdges"/><rect fill="#141020" x="1195.6" y="513.9" width="24.4" height="24.65" shape-rendering="crispEdges"/><rect fill="#141020" x="0" y="538.3" width="24.4" height="24.65" shape-rendering="crispEdges"/><rect fill="#141020" x="24.4" y="538.3" width="1146.8" height="24.65" shape-rendering="crispEdges"/><rect fill="#000010" x="1171.2" y="538.3" width="24.4" height="24.65" shape-rendering="crispEdges"/><rect fill="#141020" x="1195.6" y="538.3" width="24.4" height="24.65" shape-rendering="crispEdges"/><rect fill="#141020" x="0" y="562.7" width="24.4" height="24.65" shape-rendering="crispEdges"/><rect fill="#141020" x="24.4" y="562.7" width="12.2" height="24.65" shape-rendering="crispEdges"/><rect fill="#141020" x="36.6" y="562.7" width="1122.4" height="24.65" shape-rendering="crispEdges"/><rect fill="#141020" x="1159" y="562.7" width="12.2" height="24.65" shape-rendering="crispEdges"/><rect fill="#000010" x="1171.2" y="562.7" width="24.4" height="24.65" shape-rendering="crispEdges"/><rect fill="#141020" x="1195.6" y="562.7" width="24.4" height="24.65" shape-rendering="crispEdges"/><rect fill="#141020" x="0" y="587.1" width="24.4" height="24.65" shape-rendering="crispEdges"/><rect fill="#141020" x="24.4" y="587.1" width="12.2" height="24.65" shape-rendering="crispEdges"/><rect fill="#141020" x="36.6" y="587.1" width="427" height="24.65" shape-rendering="crispEdges"/><rect fill="#141020" x="463.6" y="587.1" width="683.2" height="24.65" shape-rendering="crispEdges"/><rect fill="#141020" x="1146.8" y="587.1" width="12.2" height="24.65" shape-rendering="crispEdges"/><rect fill="#141020" x="1159" y="587.1" width="12.2" height="24.65" shape-rendering="crispEdges"/><rect fill="#000010" x="1171.2" y="587.1" width="24.4" height="24.65" shape-rendering="crispEdges"/><rect fill="#141020" x="1195.6" y="587.1" width="24.4" height="24.65" shape-rendering="crispEdges"/><rect fill="#141020" x="0" y="611.5" width="24.4" height="24.65" shape-rendering="crispEdges"/><rect fill="#141020" x="24.4" y="611.5" width="12.2" height="24.65" shape-rendering="crispEdges"/><rect fill="#141020" x="36.6" y="611.5" width="1122.4" height="24.65" shape-rendering="crispEdges"/><rect fill="#141020" x="1159" y="611.5" width="12.2" height="24.65" shape-rendering="crispEdges"/><rect fill="#000010" x="1171.2" y="611.5" width="24.4" height="24.65" shape-rendering="crispEdges"/><rect fill="#141020" x="1195.6" y="611.5" width="24.4" height="24.65" shape-rendering="crispEdges"/><rect fill="#141020" x="0" y="635.9" width="24.4" height="24.65" shape-rendering="crispEdges"/><rect fill="#141020" x="24.4" y="635.9" width="1146.8" height="24.65" shape-rendering="crispEdges"/><rect fill="#000010" x="1171.2" y="635.9" width="24.4" height="24.65" shape-rendering="crispEdges"/><rect fill="#141020" x="1195.6" y="635.9" width="24.4" height="24.65" shape-rendering="crispEdges"/><rect fill="#141020" x="0" y="660.3" width="24.4" height="24.65" shape-rendering="crispEdges"/><rect fill="#282045" x="24.4" y="660.3" width="12.2" height="24.65" shape-rendering="crispEdges"/><rect fill="#282045" x="36.6" y="660.3" width="329.4" height="24.65" shape-rendering="crispEdges"/><rect fill="#282045" x="366" y="660.3" width="12.2" height="24.65" shape-rendering="crispEdges"/><rect fill="#141020" x="378.2" y="660.3" width="793" height="24.65" shape-rendering="crispEdges"/><rect fill="#000010" x="1171.2" y="660.3" width="24.4" height="24.65" shape-rendering="crispEdges"/><rect fill="#141020" x="1195.6" y="660.3" width="24.4" height="24.65" shape-rendering="crispEdges"/><rect fill="#141020" x="0" y="684.7" width="24.4" height="24.65" shape-rendering="crispEdges"/><rect fill="#282045" x="24.4" y="684.7" width="12.2" height="24.65" shape-rendering="crispEdges"/><rect fill="#282045" x="36.6" y="684.7" width="36.6" height="24.65" shape-rendering="crispEdges"/><rect fill="#282045" x="73.2" y="684.7" width="256.2" height="24.65" shape-rendering="crispEdges"/><rect fill="#282045" x="329.4" y="684.7" width="36.6" height="24.65" shape-rendering="crispEdges"/><rect fill="#282045" x="366" y="684.7" width="12.2" height="24.65" shape-rendering="crispEdges"/><rect fill="#141020" x="378.2" y="684.7" width="793" height="24.65" shape-rendering="crispEdges"/><rect fill="#000010" x="1171.2" y="684.7" width="24.4" height="24.65" shape-rendering="crispEdges"/><rect fill="#141020" x="1195.6" y="684.7" width="24.4" height="24.65" shape-rendering="crispEdges"/><rect fill="#282045" x="0" y="709.1" width="61" height="24.65" shape-rendering="crispEdges"/><rect fill="#282045" x="61" y="709.1" width="61" height="24.65" shape-rendering="crispEdges"/><rect fill="#282045" x="122" y="709.1" width="951.6" height="24.65" shape-rendering="crispEdges"/><rect fill="#282045" x="1073.6" y="709.1" width="12.2" height="24.65" shape-rendering="crispEdges"/><rect fill="#282045" x="1085.8" y="709.1" width="24.4" height="24.65" shape-rendering="crispEdges"/><rect fill="#282045" x="1110.2" y="709.1" width="97.6" height="24.65" shape-rendering="crispEdges"/><rect fill="#282045" x="1207.8" y="709.1" width="12.2" height="24.65" shape-rendering="crispEdges"/>
    <g class="terminal-recorder-matrix">
    <text class="terminal-recorder-r2" x="12.2" y="20" textLength="12.2" clip-path="url(#terminal-recorder-line-0)">⭘</text><text class="terminal-recorder-r2" x="475.8" y="20" textLength="109.8" clip-path="url(#terminal-recorder-line-0)">Aetherius</text><text class="terminal-recorder-r3" x="585.6" y="20" textLength="36.6" clip-path="url(#terminal-recorder-line-0)">&#160;—&#160;</text><text class="terminal-recorder-r3" x="622.2" y="20" textLength="85.4" clip-path="url(#terminal-recorder-line-0)">Console</text><text class="terminal-recorder-r1" x="1220" y="20" textLength="12.2" clip-path="url(#terminal-recorder-line-0)">
</text><text class="terminal-recorder-r1" x="1220" y="44.4" textLength="12.2" clip-path="url(#terminal-recorder-line-1)">
</text><text class="terminal-recorder-r5" x="48.8" y="68.8" textLength="24.4" clip-path="url(#terminal-recorder-line-2)">✦&#160;</text><text class="terminal-recorder-r6" x="73.2" y="68.8" textLength="97.6" clip-path="url(#terminal-recorder-line-2)">Recorder</text><text class="terminal-recorder-r5" x="170.8" y="68.8" textLength="24.4" clip-path="url(#terminal-recorder-line-2)">&#160;✦</text><text class="terminal-recorder-r1" x="1220" y="68.8" textLength="12.2" clip-path="url(#terminal-recorder-line-2)">
</text><text class="terminal-recorder-r7" x="48.8" y="93.2" textLength="1085.8" clip-path="url(#terminal-recorder-line-3)">Pick&#160;an&#160;Act,&#160;enter&#160;a&#160;name&#160;and&#160;a&#160;start&#160;URL,&#160;then&#160;Start:&#160;a&#160;browser&#160;opens.&#160;Continuum&#160;records</text><text class="terminal-recorder-r1" x="1220" y="93.2" textLength="12.2" clip-path="url(#terminal-recorder-line-3)">
</text><text class="terminal-recorder-r7" x="48.8" y="117.6" textLength="1024.8" clip-path="url(#terminal-recorder-line-4)">DOM&#160;actions&#160;and&#160;the&#160;floating&#160;menu&#160;picks&#160;data;&#160;Vector&#160;observes&#160;API&#160;calls.&#160;Closing&#160;the</text><text class="terminal-recorder-r1" x="1220" y="117.6" textLength="12.2" clip-path="url(#terminal-recorder-line-4)">
</text><text class="terminal-recorder-r7" x="48.8" y="142" textLength="646.6" clip-path="url(#terminal-recorder-line-5)">window&#160;(or&#160;Stop)&#160;saves&#160;the&#160;Blueprint&#160;to&#160;./blueprints.</text><text class="terminal-recorder-r1" x="1220" y="142" textLength="12.2" clip-path="url(#terminal-recorder-line-5)">
</text><text class="terminal-recorder-r1" x="1220" y="166.4" textLength="12.2" clip-path="url(#terminal-recorder-line-6)">
</text><text class="terminal-recorder-r1" x="1220" y="190.8" textLength="12.2" clip-path="url(#terminal-recorder-line-7)">
</text><text class="terminal-recorder-r2" x="36.6" y="215.2" textLength="36.6" clip-path="url(#terminal-recorder-line-8)">Act</text><text class="terminal-recorder-r1" x="1220" y="215.2" textLength="12.2" clip-path="url(#terminal-recorder-line-8)">
</text><text class="terminal-recorder-r4" x="36.6" y="239.6" textLength="12.2" clip-path="url(#terminal-recorder-line-9)">▊</text><text class="terminal-recorder-r8" x="48.8" y="239.6" textLength="1098" clip-path="url(#terminal-recorder-line-9)">▔▔▔▔▔▔▔▔▔▔▔▔▔▔▔▔▔▔▔▔▔▔▔▔▔▔▔▔▔▔▔▔▔▔▔▔▔▔▔▔▔▔▔▔▔▔▔▔▔▔▔▔▔▔▔▔▔▔▔▔▔▔▔▔▔▔▔▔▔▔▔▔▔▔▔▔▔▔▔▔▔▔▔▔▔▔▔▔▔▔</text><text class="terminal-recorder-r8" x="1146.8" y="239.6" textLength="12.2" clip-path="url(#terminal-recorder-line-9)">▎</text><text class="terminal-recorder-r1" x="1220" y="239.6" textLength="12.2" clip-path="url(#terminal-recorder-line-9)">
</text><text class="terminal-recorder-r4" x="36.6" y="264" textLength="12.2" clip-path="url(#terminal-recorder-line-10)">▊</text><text class="terminal-recorder-r2" x="73.2" y="264" textLength="305" clip-path="url(#terminal-recorder-line-10)">Continuum&#160;—&#160;browser&#160;(DOM)</text><text class="terminal-recorder-r9" x="1110.2" y="264" textLength="12.2" clip-path="url(#terminal-recorder-line-10)">▼</text><text class="terminal-recorder-r8" x="1146.8" y="264" textLength="12.2" clip-path="url(#terminal-recorder-line-10)">▎</text><text class="terminal-recorder-r1" x="1220" y="264" textLength="12.2" clip-path="url(#terminal-recorder-line-10)">
</text><text class="terminal-recorder-r4" x="36.6" y="288.4" textLength="12.2" clip-path="url(#terminal-recorder-line-11)">▊</text><text class="terminal-recorder-r8" x="48.8" y="288.4" textLength="1098" clip-path="url(#terminal-recorder-line-11)">▁▁▁▁▁▁▁▁▁▁▁▁▁▁▁▁▁▁▁▁▁▁▁▁▁▁▁▁▁▁▁▁▁▁▁▁▁▁▁▁▁▁▁▁▁▁▁▁▁▁▁▁▁▁▁▁▁▁▁▁▁▁▁▁▁▁▁▁▁▁▁▁▁▁▁▁▁▁▁▁▁▁▁▁▁▁▁▁▁▁</text><text class="terminal-recorder-r8" x="1146.8" y="288.4" textLength="12.2" clip-path="url(#terminal-recorder-line-11)">▎</text><text class="terminal-recorder-r1" x="1220" y="288.4" textLength="12.2" clip-path="url(#terminal-recorder-line-11)">
</text><text class="terminal-recorder-r1" x="1220" y="312.8" textLength="12.2" clip-path="url(#terminal-recorder-line-12)">
</text><text class="terminal-recorder-r2" x="36.6" y="337.2" textLength="414.8" clip-path="url(#terminal-recorder-line-13)">Blueprint&#160;name&#160;(e.g.&#160;quotes.login)</text><text class="terminal-recorder-r1" x="1220" y="337.2" textLength="12.2" clip-path="url(#terminal-recorder-line-13)">
</text><text class="terminal-recorder-r4" x="36.6" y="361.6" textLength="12.2" clip-path="url(#terminal-recorder-line-14)">▊</text><text class="terminal-recorder-r10" x="48.8" y="361.6" textLength="1098" clip-path="url(#terminal-recorder-line-14)">▔▔▔▔▔▔▔▔▔▔▔▔▔▔▔▔▔▔▔▔▔▔▔▔▔▔▔▔▔▔▔▔▔▔▔▔▔▔▔▔▔▔▔▔▔▔▔▔▔▔▔▔▔▔▔▔▔▔▔▔▔▔▔▔▔▔▔▔▔▔▔▔▔▔▔▔▔▔▔▔▔▔▔▔▔▔▔▔▔▔</text><text class="terminal-recorder-r10" x="1146.8" y="361.6" textLength="12.2" clip-path="url(#terminal-recorder-line-14)">▎</text><text class="terminal-recorder-r1" x="1220" y="361.6" textLength="12.2" clip-path="url(#terminal-recorder-line-14)">
</text><text class="terminal-recorder-r4" x="36.6" y="386" textLength="12.2" clip-path="url(#terminal-recorder-line-15)">▊</text><text class="terminal-recorder-r4" x="73.2" y="386" textLength="12.2" clip-path="url(#terminal-recorder-line-15)">d</text><text class="terminal-recorder-r11" x="85.4" y="386" textLength="122" clip-path="url(#terminal-recorder-line-15)">omain.task</text><text class="terminal-recorder-r10" x="1146.8" y="386" textLength="12.2" clip-path="url(#terminal-recorder-line-15)">▎</text><text class="terminal-recorder-r1" x="1220" y="386" textLength="12.2" clip-path="url(#terminal-recorder-line-15)">
</text><text class="terminal-recorder-r4" x="36.6" y="410.4" textLength="12.2" clip-path="url(#terminal-recorder-line-16)">▊</text><text class="terminal-recorder-r10" x="48.8" y="410.4" textLength="1098" clip-path="url(#terminal-recorder-line-16)">▁▁▁▁▁▁▁▁▁▁▁▁▁▁▁▁▁▁▁▁▁▁▁▁▁▁▁▁▁▁▁▁▁▁▁▁▁▁▁▁▁▁▁▁▁▁▁▁▁▁▁▁▁▁▁▁▁▁▁▁▁▁▁▁▁▁▁▁▁▁▁▁▁▁▁▁▁▁▁▁▁▁▁▁▁▁▁▁▁▁</text><text class="terminal-recorder-r10" x="1146.8" y="410.4" textLength="12.2" clip-path="url(#terminal-recorder-line-16)">▎</text><text class="terminal-recorder-r1" x="1220" y="410.4" textLength="12.2" clip-path="url(#terminal-recorder-line-16)">
</text><text class="terminal-recorder-r1" x="1220" y="434.8" textLength="12.2" clip-path="url(#terminal-recorder-line-17)">
</text><text class="terminal-recorder-r2" x="36.6" y="459.2" textLength="109.8" clip-path="url(#terminal-recorder-line-18)">Start&#160;URL</text><text class="terminal-recorder-r1" x="1220" y="459.2" textLength="12.2" clip-path="url(#terminal-recorder-line-18)">
</text><text class="terminal-recorder-r4" x="36.6" y="483.6" textLength="12.2" clip-path="url(#terminal-recorder-line-19)">▊</text><text class="terminal-recorder-r8" x="48.8" y="483.6" textLength="1098" clip-path="url(#terminal-recorder-line-19)">▔▔▔▔▔▔▔▔▔▔▔▔▔▔▔▔▔▔▔▔▔▔▔▔▔▔▔▔▔▔▔▔▔▔▔▔▔▔▔▔▔▔▔▔▔▔▔▔▔▔▔▔▔▔▔▔▔▔▔▔▔▔▔▔▔▔▔▔▔▔▔▔▔▔▔▔▔▔▔▔▔▔▔▔▔▔▔▔▔▔</text><text class="terminal-recorder-r8" x="1146.8" y="483.6" textLength="12.2" clip-path="url(#terminal-recorder-line-19)">▎</text><text class="terminal-recorder-r12" x="1171.2" y="483.6" textLength="24.4" clip-path="url(#terminal-recorder-line-19)">▂▂</text><text class="terminal-recorder-r1" x="1220" y="483.6" textLength="12.2" clip-path="url(#terminal-recorder-line-19)">
</text><text class="terminal-recorder-r4" x="36.6" y="508" textLength="12.2" clip-path="url(#terminal-recorder-line-20)">▊</text><text class="terminal-recorder-r13" x="73.2" y="508" textLength="109.8" clip-path="url(#terminal-recorder-line-20)">https://…</text><text class="terminal-recorder-r8" x="1146.8" y="508" textLength="12.2" clip-path="url(#terminal-recorder-line-20)">▎</text><text class="terminal-recorder-r1" x="1220" y="508" textLength="12.2" clip-path="url(#terminal-recorder-line-20)">
</text><text class="terminal-recorder-r4" x="36.6" y="532.4" textLength="12.2" clip-path="url(#terminal-recorder-line-21)">▊</text><text class="terminal-recorder-r8" x="48.8" y="532.4" textLength="1098" clip-path="url(#terminal-recorder-line-21)">▁▁▁▁▁▁▁▁▁▁▁▁▁▁▁▁▁▁▁▁▁▁▁▁▁▁▁▁▁▁▁▁▁▁▁▁▁▁▁▁▁▁▁▁▁▁▁▁▁▁▁▁▁▁▁▁▁▁▁▁▁▁▁▁▁▁▁▁▁▁▁▁▁▁▁▁▁▁▁▁▁▁▁▁▁▁▁▁▁▁</text><text class="terminal-recorder-r8" x="1146.8" y="532.4" textLength="12.2" clip-path="url(#terminal-recorder-line-21)">▎</text><text class="terminal-recorder-r1" x="1220" y="532.4" textLength="12.2" clip-path="url(#terminal-recorder-line-21)">
</text><text class="terminal-recorder-r1" x="1220" y="556.8" textLength="12.2" clip-path="url(#terminal-recorder-line-22)">
</text><text class="terminal-recorder-r1" x="1220" y="581.2" textLength="12.2" clip-path="url(#terminal-recorder-line-23)">
</text><text class="terminal-recorder-r2" x="36.6" y="605.6" textLength="427" clip-path="url(#terminal-recorder-line-24)">Turn&#160;credential&#160;fields&#160;into&#160;secrets</text><text class="terminal-recorder-r1" x="1220" y="605.6" textLength="12.2" clip-path="url(#terminal-recorder-line-24)">
</text><text class="terminal-recorder-r1" x="1220" y="630" textLength="12.2" clip-path="url(#terminal-recorder-line-25)">
</text><text class="terminal-recorder-r1" x="1220" y="654.4" textLength="12.2" clip-path="url(#terminal-recorder-line-26)">
</text><text class="terminal-recorder-r14" x="24.4" y="678.8" textLength="12.2" clip-path="url(#terminal-recorder-line-27)">╔</text><text class="terminal-recorder-r14" x="36.6" y="678.8" textLength="329.4" clip-path="url(#terminal-recorder-line-27)">═══════════════════════════</text><text class="terminal-recorder-r14" x="366" y="678.8" textLength="12.2" clip-path="url(#terminal-recorder-line-27)">╗</text><text class="terminal-recorder-r1" x="1220" y="678.8" textLength="12.2" clip-path="url(#terminal-recorder-line-27)">
</text><text class="terminal-recorder-r14" x="24.4" y="703.2" textLength="12.2" clip-path="url(#terminal-recorder-line-28)">║</text><text class="terminal-recorder-r15" x="73.2" y="703.2" textLength="256.2" clip-path="url(#terminal-recorder-line-28)">&#160;✦&#160;Start&#160;recording&#160;✦&#160;</text><text class="terminal-recorder-r14" x="366" y="703.2" textLength="12.2" clip-path="url(#terminal-recorder-line-28)">║</text><text class="terminal-recorder-r1" x="1220" y="703.2" textLength="12.2" clip-path="url(#terminal-recorder-line-28)">
</text><text class="terminal-recorder-r5" x="0" y="727.6" textLength="61" clip-path="url(#terminal-recorder-line-29)">&#160;esc&#160;</text><text class="terminal-recorder-r2" x="61" y="727.6" textLength="61" clip-path="url(#terminal-recorder-line-29)">Back&#160;</text><text class="terminal-recorder-r16" x="1073.6" y="727.6" textLength="12.2" clip-path="url(#terminal-recorder-line-29)">▏</text><text class="terminal-recorder-r5" x="1085.8" y="727.6" textLength="24.4" clip-path="url(#terminal-recorder-line-29)">^p</text><text class="terminal-recorder-r2" x="1110.2" y="727.6" textLength="97.6" clip-path="url(#terminal-recorder-line-29)">&#160;palette</text>
    </g>
    </g>
</svg>
